<?xml version="1.0" standalone="no"?><!DOCTYPE svg PUBLIC "-//W3C//DTD SVG 1.1//EN" "http://www.w3.org/Graphics/SVG/1.1/DTD/svg11.dtd"><svg t="1655210801667" class="icon" viewBox="0 0 1024 1024" version="1.1" xmlns="http://www.w3.org/2000/svg" p-id="3535" width="130" height="130" xmlns:xlink="http://www.w3.org/1999/xlink"><defs><style type="text/css">@font-face { font-family: feedback-iconfont; src: url("//at.alicdn.com/t/font_1031158_u69w8yhxdu.woff2?t=1630033759944") format("woff2"), url("//at.alicdn.com/t/font_1031158_u69w8yhxdu.woff?t=1630033759944") format("woff"), url("//at.alicdn.com/t/font_1031158_u69w8yhxdu.ttf?t=1630033759944") format("truetype"); }
</style></defs><path d="M290.304 550.4h531.456V456.704h-85.504c-21.504 6.656-42.496 8.704-66.048 8.704-64 0-119.296-21.504-151.552-53.248 0-2.048-2.048-2.048-4.096-4.096s-4.096-6.656-8.704-10.752c-25.6-27.648-68.096-47.104-117.248-47.104-55.296 0-104.448 25.6-128 59.904v96.256c4.096 8.704 10.752 14.848 19.456 23.552 3.584 7.68 8.192 14.336 10.24 20.48z" fill="#2c2c2c" opacity=".6" p-id="3536"></path><path d="M787.456 422.4c-21.504 6.656-38.4 19.456-49.152 34.304-4.096 2.048-6.656 4.096-10.752 6.656-34.304 27.648-85.504 47.104-140.8 47.104-68.096 0-125.952-25.6-160.256-64 0-2.048-2.048-4.096-4.096-4.096-2.048-4.096-6.656-8.704-8.704-10.752-27.648-34.304-72.704-55.296-123.904-55.296-40.448 0-74.752 12.8-102.4 34.304-10.752 29.696-16.896 66.048-16.896 102.4 0 49.152 10.752 96.256 29.696 136.704 42.496 85.504 113.152 151.552 198.144 183.296 2.048 0 4.096 2.048 6.656 2.048 4.096 2.048 6.144 2.048 10.752 4.096 29.696 8.704 64 14.848 96.256 14.848 34.304 0 68.096-4.096 100.352-14.848 2.048 0 4.096-2.048 6.656-2.048 4.096-2.048 10.752-4.096 14.848-6.656 76.8-32.256 140.8-91.648 183.296-168.448 21.504-44.544 34.304-95.744 34.304-149.504 0-32.256-4.096-61.952-12.8-91.648-12.8-4.608-32.256-4.608-51.2 1.536z" fill="#2c2c2c" p-id="3537"></path><path d="M512 85.504c-234.496 0-426.496 192-426.496 426.496s192 426.496 426.496 426.496 426.496-192 426.496-426.496-192-426.496-426.496-426.496z m0 810.496c-211.456 0-384-173.056-384-384s172.544-384 384-384 384 172.544 384 384-172.544 384-384 384z" fill="#2c2c2c" p-id="3538"></path></svg>